<svg width="75" height="14" viewBox="0 0 75 14" fill="none" xmlns="http://www.w3.org/2000/svg">
<path d="M9.86861 4.38281H7.69105C7.65128 4.10109 7.57008 3.85085 7.44744 3.6321C7.32481 3.41004 7.16738 3.22112 6.97514 3.06534C6.78291 2.90956 6.56084 2.79025 6.30895 2.70739C6.06037 2.62453 5.79025 2.5831 5.49858 2.5831C4.97159 2.5831 4.51255 2.71402 4.12145 2.97585C3.73035 3.23437 3.42708 3.61222 3.21165 4.10938C2.99621 4.60322 2.88849 5.20312 2.88849 5.90909C2.88849 6.63494 2.99621 7.24479 3.21165 7.73864C3.4304 8.23248 3.73532 8.60535 4.12642 8.85724C4.51752 9.10914 4.96993 9.23509 5.48366 9.23509C5.77202 9.23509 6.03883 9.19697 6.28409 9.12074C6.53267 9.04451 6.75308 8.93348 6.94531 8.78764C7.13755 8.63849 7.29664 8.45786 7.42259 8.24574C7.55185 8.03362 7.64134 7.79167 7.69105 7.51989L9.86861 7.52983C9.81226 7.99716 9.6714 8.44792 9.44602 8.8821C9.22396 9.31297 8.92401 9.6991 8.54617 10.0405C8.17164 10.3786 7.7242 10.647 7.20384 10.8459C6.68679 11.0414 6.1018 11.1392 5.44886 11.1392C4.54072 11.1392 3.72869 10.9337 3.01278 10.5227C2.30019 10.1117 1.73674 9.51681 1.32244 8.73793C0.911458 7.95904 0.705966 7.0161 0.705966 5.90909C0.705966 4.79877 0.914773 3.85417 1.33239 3.07528C1.75 2.2964 2.31676 1.70312 3.03267 1.29545C3.74858 0.884469 4.55398 0.678977 5.44886 0.678977C6.03883 0.678977 6.5857 0.761837 7.08949 0.927557C7.59659 1.09328 8.04569 1.33523 8.43679 1.65341C8.82789 1.96828 9.14607 2.3544 9.39134 2.81179C9.63991 3.26918 9.79901 3.79285 9.86861 4.38281ZM14.8228 11.1491C14.0505 11.1491 13.3827 10.9851 12.8192 10.657C12.2591 10.3255 11.8266 9.86482 11.5217 9.27486C11.2167 8.68158 11.0643 7.99384 11.0643 7.21165C11.0643 6.42282 11.2167 5.73343 11.5217 5.14347C11.8266 4.55019 12.2591 4.08949 12.8192 3.76136C13.3827 3.42992 14.0505 3.2642 14.8228 3.2642C15.5951 3.2642 16.2612 3.42992 16.8214 3.76136C17.3848 4.08949 17.819 4.55019 18.1239 5.14347C18.4289 5.73343 18.5813 6.42282 18.5813 7.21165C18.5813 7.99384 18.4289 8.68158 18.1239 9.27486C17.819 9.86482 17.3848 10.3255 16.8214 10.657C16.2612 10.9851 15.5951 11.1491 14.8228 11.1491ZM14.8327 9.50852C15.1841 9.50852 15.4774 9.40909 15.7127 9.21023C15.948 9.00805 16.1254 8.73295 16.2447 8.38494C16.3673 8.03693 16.4286 7.64086 16.4286 7.19673C16.4286 6.7526 16.3673 6.35653 16.2447 6.00852C16.1254 5.66051 15.948 5.38542 15.7127 5.18324C15.4774 4.98106 15.1841 4.87997 14.8327 4.87997C14.4781 4.87997 14.1798 4.98106 13.9379 5.18324C13.6992 5.38542 13.5186 5.66051 13.396 6.00852C13.2766 6.35653 13.217 6.7526 13.217 7.19673C13.217 7.64086 13.2766 8.03693 13.396 8.38494C13.5186 8.73295 13.6992 9.00805 13.9379 9.21023C14.1798 9.40909 14.4781 9.50852 14.8327 9.50852ZM19.9585 11V3.36364H21.9769V4.71094H22.0664C22.2255 4.26349 22.4906 3.91051 22.8619 3.65199C23.2331 3.39347 23.6772 3.2642 24.1942 3.2642C24.7179 3.2642 25.1637 3.39512 25.5316 3.65696C25.8995 3.91548 26.1448 4.26681 26.2674 4.71094H26.3469C26.5027 4.27344 26.7844 3.92377 27.1921 3.66193C27.6031 3.39678 28.0887 3.2642 28.6488 3.2642C29.3614 3.2642 29.9397 3.49124 30.3839 3.94531C30.8313 4.39607 31.055 5.03575 31.055 5.86435V11H28.9421V6.28196C28.9421 5.85772 28.8294 5.53954 28.604 5.32741C28.3787 5.11529 28.0969 5.00923 27.7589 5.00923C27.3744 5.00923 27.0745 5.13187 26.859 5.37713C26.6436 5.61908 26.5359 5.93892 26.5359 6.33665V11H24.4826V6.23722C24.4826 5.86269 24.3749 5.56439 24.1594 5.34233C23.9473 5.12026 23.6673 5.00923 23.3192 5.00923C23.0839 5.00923 22.8718 5.06889 22.6829 5.18821C22.4973 5.30421 22.3498 5.46828 22.2404 5.6804C22.131 5.8892 22.0763 6.13447 22.0763 6.41619V11H19.9585ZM32.728 13.8636V3.36364H34.8161V4.64631H34.9105C35.0033 4.44081 35.1375 4.23201 35.3132 4.01989C35.4922 3.80445 35.7242 3.62547 36.0092 3.48295C36.2976 3.33712 36.6555 3.2642 37.0831 3.2642C37.6399 3.2642 38.1536 3.41004 38.6243 3.7017C39.0949 3.99006 39.4711 4.4259 39.7528 5.00923C40.0346 5.58925 40.1754 6.31676 40.1754 7.19176C40.1754 8.04356 40.0379 8.76278 39.7628 9.34943C39.491 9.93277 39.1198 10.3752 38.6491 10.6768C38.1818 10.9751 37.6581 11.1243 37.0781 11.1243C36.6671 11.1243 36.3175 11.0563 36.0291 10.9205C35.7441 10.7846 35.5104 10.6139 35.3281 10.4084C35.1458 10.1996 35.0066 9.98911 34.9105 9.77699H34.8459V13.8636H32.728ZM34.8011 7.18182C34.8011 7.63589 34.8641 8.03196 34.9901 8.37003C35.116 8.7081 35.2983 8.97159 35.5369 9.16051C35.7756 9.34612 36.0656 9.43892 36.407 9.43892C36.7517 9.43892 37.0433 9.34446 37.282 9.15554C37.5206 8.9633 37.7012 8.69815 37.8239 8.36009C37.9498 8.0187 38.0128 7.62595 38.0128 7.18182C38.0128 6.741 37.9515 6.35322 37.8288 6.01847C37.7062 5.68371 37.5256 5.42187 37.2869 5.23295C37.0483 5.04403 36.755 4.94957 36.407 4.94957C36.0623 4.94957 35.7706 5.04072 35.532 5.22301C35.2966 5.4053 35.116 5.66383 34.9901 5.99858C34.8641 6.33333 34.8011 6.72775 34.8011 7.18182ZM43.7053 0.818182V11H41.5874V0.818182H43.7053ZM48.8819 11.1491C48.0964 11.1491 47.4203 10.9901 46.8535 10.6719C46.2901 10.3504 45.8559 9.89631 45.551 9.30966C45.246 8.7197 45.0936 8.02202 45.0936 7.21662C45.0936 6.43111 45.246 5.74171 45.551 5.14844C45.8559 4.55516 46.2851 4.0928 46.8386 3.76136C47.3954 3.42992 48.0484 3.2642 48.7974 3.2642C49.3012 3.2642 49.7702 3.34541 50.2044 3.50781C50.6419 3.6669 51.023 3.9072 51.3478 4.22869C51.676 4.55019 51.9312 4.95455 52.1135 5.44176C52.2958 5.92566 52.3869 6.49242 52.3869 7.14205V7.72372H45.9387V6.41122H50.3933C50.3933 6.1063 50.327 5.83617 50.1944 5.60085C50.0618 5.36553 49.8779 5.18158 49.6426 5.04901C49.4106 4.91312 49.1404 4.84517 48.8322 4.84517C48.5107 4.84517 48.2257 4.91974 47.9771 5.06889C47.7318 5.21473 47.5396 5.41193 47.4004 5.66051C47.2612 5.90578 47.1899 6.17921 47.1866 6.48082V7.72869C47.1866 8.10653 47.2562 8.433 47.3954 8.7081C47.5379 8.98319 47.7385 9.19531 47.997 9.34446C48.2555 9.49361 48.5621 9.56818 48.9167 9.56818C49.152 9.56818 49.3675 9.53504 49.563 9.46875C49.7586 9.40246 49.926 9.30303 50.0652 9.17045C50.2044 9.03788 50.3104 8.87547 50.3833 8.68324L52.3422 8.8125C52.2427 9.28314 52.0389 9.69413 51.7306 10.0455C51.4257 10.3935 51.0313 10.6652 50.5474 10.8608C50.0668 11.053 49.5117 11.1491 48.8819 11.1491ZM57.8308 3.36364V4.95455H53.2321V3.36364H57.8308ZM54.2761 1.53409H56.394V8.65341C56.394 8.84896 56.4238 9.00142 56.4835 9.1108C56.5431 9.21686 56.626 9.29143 56.7321 9.33452C56.8414 9.3776 56.9674 9.39915 57.1099 9.39915C57.2093 9.39915 57.3088 9.39086 57.4082 9.37429C57.5076 9.3544 57.5839 9.33949 57.6369 9.32955L57.97 10.9055C57.8639 10.9387 57.7148 10.9768 57.5225 11.0199C57.3303 11.0663 57.0967 11.0945 56.8216 11.1044C56.3111 11.1243 55.8637 11.0563 55.4792 10.9006C55.0981 10.7448 54.8014 10.5028 54.5893 10.1747C54.3772 9.84659 54.2728 9.43229 54.2761 8.93182V1.53409ZM62.6085 11.1491C61.823 11.1491 61.1468 10.9901 60.5801 10.6719C60.0166 10.3504 59.5824 9.89631 59.2775 9.30966C58.9726 8.7197 58.8201 8.02202 58.8201 7.21662C58.8201 6.43111 58.9726 5.74171 59.2775 5.14844C59.5824 4.55516 60.0117 4.0928 60.5652 3.76136C61.122 3.42992 61.7749 3.2642 62.524 3.2642C63.0278 3.2642 63.4967 3.34541 63.9309 3.50781C64.3684 3.6669 64.7496 3.9072 65.0744 4.22869C65.4025 4.55019 65.6577 4.95455 65.84 5.44176C66.0223 5.92566 66.1135 6.49242 66.1135 7.14205V7.72372H59.6653V6.41122H64.1199C64.1199 6.1063 64.0536 5.83617 63.921 5.60085C63.7884 5.36553 63.6045 5.18158 63.3691 5.04901C63.1371 4.91312 62.867 4.84517 62.5588 4.84517C62.2373 4.84517 61.9522 4.91974 61.7037 5.06889C61.4584 5.21473 61.2662 5.41193 61.127 5.66051C60.9877 5.90578 60.9165 6.17921 60.9132 6.48082V7.72869C60.9132 8.10653 60.9828 8.433 61.122 8.7081C61.2645 8.98319 61.465 9.19531 61.7235 9.34446C61.9821 9.49361 62.2886 9.56818 62.6433 9.56818C62.8786 9.56818 63.094 9.53504 63.2896 9.46875C63.4851 9.40246 63.6525 9.30303 63.7917 9.17045C63.9309 9.03788 64.037 8.87547 64.1099 8.68324L66.0687 8.8125C65.9693 9.28314 65.7654 9.69413 65.4572 10.0455C65.1523 10.3935 64.7579 10.6652 64.274 10.8608C63.7934 11.053 63.2382 11.1491 62.6085 11.1491ZM70.3095 11.1243C69.7295 11.1243 69.2041 10.9751 68.7335 10.6768C68.2662 10.3752 67.8949 9.93277 67.6199 9.34943C67.3481 8.76278 67.2122 8.04356 67.2122 7.19176C67.2122 6.31676 67.353 5.58925 67.6348 5.00923C67.9165 4.4259 68.291 3.99006 68.7583 3.7017C69.229 3.41004 69.7444 3.2642 70.3045 3.2642C70.7321 3.2642 71.0884 3.33712 71.3734 3.48295C71.6618 3.62547 71.8938 3.80445 72.0694 4.01989C72.2484 4.23201 72.3843 4.44081 72.4771 4.64631H72.5417V0.818182H74.6547V11H72.5666V9.77699H72.4771C72.3777 9.98911 72.2368 10.1996 72.0545 10.4084C71.8755 10.6139 71.6419 10.7846 71.3535 10.9205C71.0685 11.0563 70.7205 11.1243 70.3095 11.1243ZM70.9806 9.43892C71.322 9.43892 71.6104 9.34612 71.8457 9.16051C72.0843 8.97159 72.2666 8.7081 72.3926 8.37003C72.5218 8.03196 72.5865 7.63589 72.5865 7.18182C72.5865 6.72775 72.5235 6.33333 72.3975 5.99858C72.2716 5.66383 72.0893 5.4053 71.8507 5.22301C71.612 5.04072 71.322 4.94957 70.9806 4.94957C70.6326 4.94957 70.3393 5.04403 70.1007 5.23295C69.862 5.42187 69.6814 5.68371 69.5588 6.01847C69.4361 6.35322 69.3748 6.741 69.3748 7.18182C69.3748 7.62595 69.4361 8.0187 69.5588 8.36009C69.6847 8.69815 69.8654 8.9633 70.1007 9.15554C70.3393 9.34446 70.6326 9.43892 70.9806 9.43892Z" fill="#4EA8DE"/>
</svg>
