<svg width="86" height="15" viewBox="0 0 86 15" fill="none" xmlns="http://www.w3.org/2000/svg">
<path d="M0.884943 11V0.818182H3.03764V5.01918H7.40767V0.818182H9.5554V11H7.40767V6.79403H3.03764V11H0.884943ZM11.2905 11V3.36364H13.4084V11H11.2905ZM12.3544 2.37926C12.0395 2.37926 11.7694 2.27486 11.544 2.06605C11.322 1.85393 11.2109 1.60038 11.2109 1.3054C11.2109 1.01373 11.322 0.763494 11.544 0.554688C11.7694 0.342566 12.0395 0.236505 12.3544 0.236505C12.6693 0.236505 12.9377 0.342566 13.1598 0.554688C13.3852 0.763494 13.4979 1.01373 13.4979 1.3054C13.4979 1.60038 13.3852 1.85393 13.1598 2.06605C12.9377 2.27486 12.6693 2.37926 12.3544 2.37926ZM18.5453 14.0227C17.8592 14.0227 17.2709 13.9283 16.7804 13.7393C16.2931 13.5537 15.9054 13.3002 15.617 12.9787C15.3287 12.6572 15.1414 12.2959 15.0552 11.8949L17.014 11.6314C17.0737 11.7839 17.1681 11.9264 17.2974 12.0589C17.4267 12.1915 17.5974 12.2976 17.8095 12.3771C18.0249 12.46 18.2868 12.5014 18.595 12.5014C19.0557 12.5014 19.4352 12.3887 19.7335 12.1634C20.0351 11.9413 20.1859 11.5684 20.1859 11.0447V9.64773H20.0964C20.0036 9.85985 19.8644 10.0604 19.6788 10.2493C19.4932 10.4382 19.2546 10.5923 18.9629 10.7116C18.6712 10.831 18.3232 10.8906 17.9189 10.8906C17.3455 10.8906 16.8234 10.758 16.3528 10.4929C15.8855 10.2244 15.5126 9.8151 15.2342 9.26491C14.9591 8.71141 14.8216 8.01207 14.8216 7.1669C14.8216 6.30185 14.9624 5.57931 15.2441 4.99929C15.5259 4.41927 15.9004 3.98509 16.3677 3.69673C16.8384 3.40838 17.3538 3.2642 17.9139 3.2642C18.3414 3.2642 18.6994 3.33712 18.9877 3.48295C19.2761 3.62547 19.5081 3.80445 19.6838 4.01989C19.8627 4.23201 20.0003 4.44081 20.0964 4.64631H20.176V3.36364H22.2789V11.0746C22.2789 11.7242 22.1199 12.2678 21.8017 12.7053C21.4835 13.1428 21.0427 13.4709 20.4792 13.6896C19.9191 13.9117 19.2744 14.0227 18.5453 14.0227ZM18.59 9.29972C18.9314 9.29972 19.2198 9.2152 19.4551 9.04616C19.6937 8.87382 19.876 8.62855 20.002 8.31037C20.1312 7.98887 20.1958 7.6044 20.1958 7.15696C20.1958 6.70952 20.1329 6.32173 20.0069 5.99361C19.881 5.66217 19.6987 5.4053 19.46 5.22301C19.2214 5.04072 18.9314 4.94957 18.59 4.94957C18.242 4.94957 17.9487 5.04403 17.71 5.23295C17.4714 5.41856 17.2908 5.67708 17.1681 6.00852C17.0455 6.33996 16.9842 6.72277 16.9842 7.15696C16.9842 7.59777 17.0455 7.97893 17.1681 8.30043C17.2941 8.61861 17.4747 8.86553 17.71 9.04119C17.9487 9.21354 18.242 9.29972 18.59 9.29972ZM26.0822 6.58523V11H23.9643V0.818182H26.0225V4.71094H26.112C26.2844 4.26018 26.5628 3.9072 26.9473 3.65199C27.3317 3.39347 27.814 3.2642 28.394 3.2642C28.9243 3.2642 29.3867 3.38021 29.7811 3.61222C30.1788 3.84091 30.487 4.17069 30.7058 4.60156C30.9279 5.02912 31.0372 5.54119 31.0339 6.13778V11H28.916V6.51562C28.9193 6.04498 28.8 5.67874 28.5581 5.4169C28.3194 5.15507 27.9847 5.02415 27.5538 5.02415C27.2654 5.02415 27.0102 5.08546 26.7882 5.2081C26.5694 5.33073 26.3971 5.50971 26.2711 5.74503C26.1485 5.97704 26.0855 6.2571 26.0822 6.58523ZM35.9806 11V0.818182H39.9977C40.7699 0.818182 41.4279 0.965672 41.9714 1.26065C42.515 1.55232 42.9293 1.95833 43.2143 2.47869C43.5027 2.99574 43.6468 3.59233 43.6468 4.26847C43.6468 4.9446 43.501 5.54119 43.2093 6.05824C42.9177 6.57528 42.4951 6.97798 41.9416 7.26634C41.3914 7.55469 40.7252 7.69886 39.943 7.69886H37.3826V5.97372H39.595C40.0093 5.97372 40.3507 5.90246 40.6191 5.75994C40.8909 5.61411 41.0931 5.41359 41.2257 5.15838C41.3616 4.89986 41.4295 4.60322 41.4295 4.26847C41.4295 3.9304 41.3616 3.63542 41.2257 3.38352C41.0931 3.12831 40.8909 2.93111 40.6191 2.7919C40.3474 2.64938 40.0027 2.57812 39.585 2.57812H38.1333V11H35.9806ZM45.0053 11V3.36364H47.0586V4.69602H47.1381C47.2773 4.22206 47.511 3.86411 47.8391 3.62216C48.1673 3.37689 48.5451 3.25426 48.9727 3.25426C49.0787 3.25426 49.1931 3.26089 49.3157 3.27415C49.4383 3.28741 49.546 3.30563 49.6388 3.32883V5.2081C49.5394 5.17827 49.4019 5.15175 49.2262 5.12855C49.0505 5.10535 48.8898 5.09375 48.744 5.09375C48.4324 5.09375 48.154 5.1617 47.9087 5.29759C47.6668 5.43016 47.4746 5.61577 47.332 5.8544C47.1928 6.09304 47.1232 6.36813 47.1232 6.67969V11H45.0053ZM50.7338 11V3.36364H52.8517V11H50.7338ZM51.7978 2.37926C51.4829 2.37926 51.2128 2.27486 50.9874 2.06605C50.7653 1.85393 50.6543 1.60038 50.6543 1.3054C50.6543 1.01373 50.7653 0.763494 50.9874 0.554688C51.2128 0.342566 51.4829 0.236505 51.7978 0.236505C52.1126 0.236505 52.3811 0.342566 52.6032 0.554688C52.8285 0.763494 52.9412 1.01373 52.9412 1.3054C52.9412 1.60038 52.8285 1.85393 52.6032 2.06605C52.3811 2.27486 52.1126 2.37926 51.7978 2.37926ZM57.9986 11.1491C57.2263 11.1491 56.5585 10.9851 55.995 10.657C55.4349 10.3255 55.0024 9.86482 54.6974 9.27486C54.3925 8.68158 54.2401 7.99384 54.2401 7.21165C54.2401 6.42282 54.3925 5.73343 54.6974 5.14347C55.0024 4.55019 55.4349 4.08949 55.995 3.76136C56.5585 3.42992 57.2263 3.2642 57.9986 3.2642C58.7708 3.2642 59.437 3.42992 59.9972 3.76136C60.5606 4.08949 60.9948 4.55019 61.2997 5.14347C61.6046 5.73343 61.7571 6.42282 61.7571 7.21165C61.7571 7.99384 61.6046 8.68158 61.2997 9.27486C60.9948 9.86482 60.5606 10.3255 59.9972 10.657C59.437 10.9851 58.7708 11.1491 57.9986 11.1491ZM58.0085 9.50852C58.3598 9.50852 58.6532 9.40909 58.8885 9.21023C59.1238 9.00805 59.3011 8.73295 59.4205 8.38494C59.5431 8.03693 59.6044 7.64086 59.6044 7.19673C59.6044 6.7526 59.5431 6.35653 59.4205 6.00852C59.3011 5.66051 59.1238 5.38542 58.8885 5.18324C58.6532 4.98106 58.3598 4.87997 58.0085 4.87997C57.6539 4.87997 57.3556 4.98106 57.1136 5.18324C56.875 5.38542 56.6944 5.66051 56.5717 6.00852C56.4524 6.35653 56.3928 6.7526 56.3928 7.19673C56.3928 7.64086 56.4524 8.03693 56.5717 8.38494C56.6944 8.73295 56.875 9.00805 57.1136 9.21023C57.3556 9.40909 57.6539 9.50852 58.0085 9.50852ZM63.1342 11V3.36364H65.1875V4.69602H65.267C65.4063 4.22206 65.6399 3.86411 65.968 3.62216C66.2962 3.37689 66.674 3.25426 67.1016 3.25426C67.2076 3.25426 67.322 3.26089 67.4446 3.27415C67.5672 3.28741 67.675 3.30563 67.7678 3.32883V5.2081C67.6683 5.17827 67.5308 5.15175 67.3551 5.12855C67.1795 5.10535 67.0187 5.09375 66.8729 5.09375C66.5613 5.09375 66.2829 5.1617 66.0376 5.29759C65.7957 5.43016 65.6035 5.61577 65.4609 5.8544C65.3217 6.09304 65.2521 6.36813 65.2521 6.67969V11H63.1342ZM68.8627 11V3.36364H70.9806V11H68.8627ZM69.9267 2.37926C69.6118 2.37926 69.3417 2.27486 69.1163 2.06605C68.8942 1.85393 68.7832 1.60038 68.7832 1.3054C68.7832 1.01373 68.8942 0.763494 69.1163 0.554688C69.3417 0.342566 69.6118 0.236505 69.9267 0.236505C70.2415 0.236505 70.51 0.342566 70.7321 0.554688C70.9574 0.763494 71.0701 1.01373 71.0701 1.3054C71.0701 1.60038 70.9574 1.85393 70.7321 2.06605C70.51 2.27486 70.2415 2.37926 69.9267 2.37926ZM76.739 3.36364V4.95455H72.1403V3.36364H76.739ZM73.1843 1.53409H75.3022V8.65341C75.3022 8.84896 75.332 9.00142 75.3917 9.1108C75.4513 9.21686 75.5342 9.29143 75.6403 9.33452C75.7496 9.3776 75.8756 9.39915 76.0181 9.39915C76.1175 9.39915 76.217 9.39086 76.3164 9.37429C76.4158 9.3544 76.4921 9.33949 76.5451 9.32955L76.8782 10.9055C76.7721 10.9387 76.623 10.9768 76.4308 11.0199C76.2385 11.0663 76.0049 11.0945 75.7298 11.1044C75.2193 11.1243 74.7719 11.0563 74.3874 10.9006C74.0063 10.7448 73.7096 10.5028 73.4975 10.1747C73.2854 9.84659 73.181 9.43229 73.1843 8.93182V1.53409ZM79.4261 13.8636C79.1577 13.8636 78.9058 13.8421 78.6705 13.799C78.4384 13.7592 78.2462 13.7079 78.0938 13.6449L78.571 12.0639C78.8196 12.1402 79.0433 12.1816 79.2422 12.1882C79.4444 12.1948 79.6184 12.1484 79.7642 12.049C79.9134 11.9496 80.0343 11.7805 80.1271 11.5419L80.2514 11.2188L77.5121 3.36364H79.7393L81.3203 8.97159H81.3999L82.9957 3.36364H85.2379L82.2699 11.8253C82.1274 12.2363 81.9335 12.5942 81.6882 12.8991C81.4463 13.2074 81.1397 13.4444 80.7685 13.6101C80.3973 13.7791 79.9498 13.8636 79.4261 13.8636Z" fill="#8284FA"/>
</svg>
