<svg width="51" height="12" viewBox="0 0 51 12" fill="none" xmlns="http://www.w3.org/2000/svg">
<path d="M6.40838 3.74645C6.36861 3.34541 6.19792 3.03385 5.89631 2.81179C5.5947 2.58972 5.18537 2.47869 4.66832 2.47869C4.317 2.47869 4.02036 2.52841 3.77841 2.62784C3.53646 2.72396 3.35085 2.85819 3.22159 3.03054C3.09564 3.20289 3.03267 3.39844 3.03267 3.61719C3.02604 3.79948 3.06416 3.95857 3.14702 4.09446C3.23319 4.23035 3.35085 4.34801 3.5 4.44744C3.64915 4.54356 3.8215 4.62808 4.01705 4.70099C4.21259 4.7706 4.4214 4.83026 4.64347 4.87997L5.55824 5.09872C6.00237 5.19815 6.41004 5.33073 6.78125 5.49645C7.15246 5.66217 7.47396 5.866 7.74574 6.10795C8.01752 6.34991 8.22798 6.63494 8.37713 6.96307C8.52959 7.29119 8.60748 7.66738 8.6108 8.09162C8.60748 8.71473 8.44839 9.25497 8.13352 9.71236C7.82197 10.1664 7.37121 10.5194 6.78125 10.7713C6.1946 11.0199 5.48698 11.1442 4.65838 11.1442C3.83641 11.1442 3.1205 11.0182 2.51065 10.7663C1.90412 10.5144 1.43016 10.1416 1.08878 9.64773C0.75071 9.15057 0.57339 8.53575 0.556818 7.80327H2.63991C2.66312 8.14465 2.76089 8.42969 2.93324 8.65838C3.1089 8.88376 3.34257 9.05445 3.63423 9.17045C3.92921 9.28314 4.26231 9.33949 4.63352 9.33949C4.99811 9.33949 5.31463 9.28646 5.5831 9.1804C5.85488 9.07434 6.06534 8.92685 6.21449 8.73793C6.36364 8.54901 6.43821 8.33191 6.43821 8.08665C6.43821 7.85795 6.37027 7.66572 6.23438 7.50994C6.1018 7.35417 5.90625 7.22159 5.64773 7.11222C5.39252 7.00284 5.07931 6.90341 4.7081 6.81392L3.59943 6.53551C2.741 6.3267 2.06321 6.00024 1.56605 5.55611C1.06889 5.11198 0.82197 4.51373 0.825284 3.76136C0.82197 3.14489 0.986032 2.6063 1.31747 2.1456C1.65223 1.6849 2.11127 1.32528 2.6946 1.06676C3.27794 0.808238 3.94081 0.678977 4.68324 0.678977C5.43892 0.678977 6.09849 0.808238 6.66193 1.06676C7.22869 1.32528 7.66951 1.6849 7.98438 2.1456C8.29924 2.6063 8.46165 3.13991 8.47159 3.74645H6.40838ZM14.0808 3.36364V4.95455H9.48207V3.36364H14.0808ZM10.5261 1.53409H12.644V8.65341C12.644 8.84896 12.6738 9.00142 12.7335 9.1108C12.7931 9.21686 12.876 9.29143 12.9821 9.33452C13.0914 9.3776 13.2174 9.39915 13.3599 9.39915C13.4593 9.39915 13.5588 9.39086 13.6582 9.37429C13.7576 9.3544 13.8339 9.33949 13.8869 9.32955L14.22 10.9055C14.1139 10.9387 13.9648 10.9768 13.7725 11.0199C13.5803 11.0663 13.3467 11.0945 13.0716 11.1044C12.5611 11.1243 12.1137 11.0563 11.7292 10.9006C11.3481 10.7448 11.0514 10.5028 10.8393 10.1747C10.6272 9.84659 10.5228 9.43229 10.5261 8.93182V1.53409ZM17.638 11.1442C17.1507 11.1442 16.7166 11.0597 16.3354 10.8906C15.9542 10.7183 15.6526 10.4647 15.4306 10.13C15.2118 9.7919 15.1025 9.37098 15.1025 8.86719C15.1025 8.44295 15.1803 8.08665 15.3361 7.7983C15.4919 7.50994 15.704 7.27794 15.9725 7.10227C16.2409 6.92661 16.5459 6.79403 16.8873 6.70455C17.2319 6.61506 17.5932 6.55208 17.9711 6.51562C18.4152 6.46922 18.7731 6.42614 19.0449 6.38636C19.3167 6.34328 19.5139 6.2803 19.6365 6.19744C19.7592 6.11458 19.8205 5.99195 19.8205 5.82955V5.79972C19.8205 5.48485 19.7211 5.24124 19.5222 5.06889C19.3266 4.89654 19.0482 4.81037 18.687 4.81037C18.3058 4.81037 18.0025 4.89489 17.7772 5.06392C17.5518 5.22964 17.4026 5.43845 17.3297 5.69034L15.3709 5.53125C15.4703 5.06723 15.6659 4.66619 15.9576 4.32812C16.2492 3.98674 16.6254 3.7249 17.0861 3.54261C17.5501 3.35701 18.0871 3.2642 18.6969 3.2642C19.1212 3.2642 19.5272 3.31392 19.915 3.41335C20.306 3.51278 20.6524 3.6669 20.954 3.87571C21.2589 4.08452 21.4992 4.35298 21.6749 4.68111C21.8506 5.00592 21.9384 5.39536 21.9384 5.84943V11H19.9299V9.94105H19.8702C19.7476 10.1797 19.5835 10.3902 19.378 10.5724C19.1725 10.7514 18.9256 10.8923 18.6373 10.995C18.3489 11.0945 18.0158 11.1442 17.638 11.1442ZM18.2445 9.68253C18.556 9.68253 18.8311 9.62121 19.0698 9.49858C19.3084 9.37263 19.4957 9.2036 19.6316 8.99148C19.7675 8.77936 19.8354 8.53906 19.8354 8.2706V7.46023C19.7691 7.50331 19.678 7.54309 19.562 7.57955C19.4493 7.61269 19.3217 7.64418 19.1792 7.67401C19.0366 7.70052 18.8941 7.72538 18.7516 7.74858C18.6091 7.76847 18.4798 7.78669 18.3638 7.80327C18.1152 7.83973 17.8981 7.89773 17.7125 7.97727C17.5269 8.05682 17.3828 8.16454 17.28 8.30043C17.1773 8.433 17.1259 8.59872 17.1259 8.79759C17.1259 9.08594 17.2303 9.30634 17.4391 9.45881C17.6512 9.60795 17.9197 9.68253 18.2445 9.68253ZM23.5815 11V3.36364H25.6348V4.69602H25.7143C25.8535 4.22206 26.0872 3.86411 26.4153 3.62216C26.7434 3.37689 27.1213 3.25426 27.5488 3.25426C27.6549 3.25426 27.7692 3.26089 27.8919 3.27415C28.0145 3.28741 28.1222 3.30563 28.215 3.32883V5.2081C28.1156 5.17827 27.978 5.15175 27.8024 5.12855C27.6267 5.10535 27.466 5.09375 27.3201 5.09375C27.0086 5.09375 26.7302 5.1617 26.4849 5.29759C26.243 5.43016 26.0507 5.61577 25.9082 5.8544C25.769 6.09304 25.6994 6.36813 25.6994 6.67969V11H23.5815ZM33.7546 3.36364V4.95455H29.1559V3.36364H33.7546ZM30.1999 1.53409H32.3178V8.65341C32.3178 8.84896 32.3477 9.00142 32.4073 9.1108C32.467 9.21686 32.5498 9.29143 32.6559 9.33452C32.7653 9.3776 32.8912 9.39915 33.0337 9.39915C33.1332 9.39915 33.2326 9.39086 33.332 9.37429C33.4315 9.3544 33.5077 9.33949 33.5607 9.32955L33.8938 10.9055C33.7878 10.9387 33.6386 10.9768 33.4464 11.0199C33.2541 11.0663 33.0205 11.0945 32.7454 11.1044C32.235 11.1243 31.7875 11.0563 31.4031 10.9006C31.0219 10.7448 30.7253 10.5028 30.5131 10.1747C30.301 9.84659 30.1966 9.43229 30.1999 8.93182V1.53409ZM38.5323 11.1491C37.7468 11.1491 37.0707 10.9901 36.5039 10.6719C35.9405 10.3504 35.5063 9.89631 35.2013 9.30966C34.8964 8.7197 34.744 8.02202 34.744 7.21662C34.744 6.43111 34.8964 5.74171 35.2013 5.14844C35.5063 4.55516 35.9355 4.0928 36.489 3.76136C37.0458 3.42992 37.6987 3.2642 38.4478 3.2642C38.9516 3.2642 39.4206 3.34541 39.8548 3.50781C40.2923 3.6669 40.6734 3.9072 40.9982 4.22869C41.3263 4.55019 41.5816 4.95455 41.7638 5.44176C41.9461 5.92566 42.0373 6.49242 42.0373 7.14205V7.72372H35.5891V6.41122H40.0437C40.0437 6.1063 39.9774 5.83617 39.8448 5.60085C39.7122 5.36553 39.5283 5.18158 39.293 5.04901C39.061 4.91312 38.7908 4.84517 38.4826 4.84517C38.1611 4.84517 37.8761 4.91974 37.6275 5.06889C37.3822 5.21473 37.19 5.41193 37.0508 5.66051C36.9116 5.90578 36.8403 6.17921 36.837 6.48082V7.72869C36.837 8.10653 36.9066 8.433 37.0458 8.7081C37.1883 8.98319 37.3888 9.19531 37.6474 9.34446C37.9059 9.49361 38.2125 9.56818 38.5671 9.56818C38.8024 9.56818 39.0179 9.53504 39.2134 9.46875C39.409 9.40246 39.5763 9.30303 39.7156 9.17045C39.8548 9.03788 39.9608 8.87547 40.0337 8.68324L41.9925 8.8125C41.8931 9.28314 41.6893 9.69413 41.381 10.0455C41.0761 10.3935 40.6817 10.6652 40.1978 10.8608C39.7172 11.053 39.1621 11.1491 38.5323 11.1491ZM46.2333 11.1243C45.6533 11.1243 45.128 10.9751 44.6573 10.6768C44.19 10.3752 43.8188 9.93277 43.5437 9.34943C43.2719 8.76278 43.136 8.04356 43.136 7.19176C43.136 6.31676 43.2769 5.58925 43.5586 5.00923C43.8403 4.4259 44.2148 3.99006 44.6822 3.7017C45.1528 3.41004 45.6682 3.2642 46.2283 3.2642C46.6559 3.2642 47.0122 3.33712 47.2972 3.48295C47.5856 3.62547 47.8176 3.80445 47.9933 4.01989C48.1722 4.23201 48.3081 4.44081 48.4009 4.64631H48.4656V0.818182H50.5785V11H48.4904V9.77699H48.4009C48.3015 9.98911 48.1606 10.1996 47.9783 10.4084C47.7994 10.6139 47.5657 10.7846 47.2773 10.9205C46.9923 11.0563 46.6443 11.1243 46.2333 11.1243ZM46.9045 9.43892C47.2459 9.43892 47.5342 9.34612 47.7695 9.16051C48.0082 8.97159 48.1905 8.7081 48.3164 8.37003C48.4457 8.03196 48.5103 7.63589 48.5103 7.18182C48.5103 6.72775 48.4473 6.33333 48.3214 5.99858C48.1954 5.66383 48.0131 5.4053 47.7745 5.22301C47.5359 5.04072 47.2459 4.94957 46.9045 4.94957C46.5565 4.94957 46.2631 5.04403 46.0245 5.23295C45.7859 5.42187 45.6052 5.68371 45.4826 6.01847C45.36 6.35322 45.2987 6.741 45.2987 7.18182C45.2987 7.62595 45.36 8.0187 45.4826 8.36009C45.6085 8.69815 45.7892 8.9633 46.0245 9.15554C46.2631 9.34446 46.5565 9.43892 46.9045 9.43892Z" fill="#4EA8DE"/>
</svg>
