<svg width="39" height="12" viewBox="0 0 39 12" fill="none" xmlns="http://www.w3.org/2000/svg">
<path d="M0.497159 2.59304V0.818182H8.85938V2.59304H5.74219V11H3.61435V2.59304H0.497159ZM12.5396 11.1491C11.7673 11.1491 11.0995 10.9851 10.536 10.657C9.97591 10.3255 9.54338 9.86482 9.23846 9.27486C8.93353 8.68158 8.78107 7.99384 8.78107 7.21165C8.78107 6.42282 8.93353 5.73343 9.23846 5.14347C9.54338 4.55019 9.97591 4.08949 10.536 3.76136C11.0995 3.42992 11.7673 3.2642 12.5396 3.2642C13.3118 3.2642 13.978 3.42992 14.5382 3.76136C15.1016 4.08949 15.5358 4.55019 15.8407 5.14347C16.1457 5.73343 16.2981 6.42282 16.2981 7.21165C16.2981 7.99384 16.1457 8.68158 15.8407 9.27486C15.5358 9.86482 15.1016 10.3255 14.5382 10.657C13.978 10.9851 13.3118 11.1491 12.5396 11.1491ZM12.5495 9.50852C12.9009 9.50852 13.1942 9.40909 13.4295 9.21023C13.6648 9.00805 13.8422 8.73295 13.9615 8.38494C14.0841 8.03693 14.1454 7.64086 14.1454 7.19673C14.1454 6.7526 14.0841 6.35653 13.9615 6.00852C13.8422 5.66051 13.6648 5.38542 13.4295 5.18324C13.1942 4.98106 12.9009 4.87997 12.5495 4.87997C12.1949 4.87997 11.8966 4.98106 11.6547 5.18324C11.416 5.38542 11.2354 5.66051 11.1127 6.00852C10.9934 6.35653 10.9338 6.7526 10.9338 7.19673C10.9338 7.64086 10.9934 8.03693 11.1127 8.38494C11.2354 8.73295 11.416 9.00805 11.6547 9.21023C11.8966 9.40909 12.1949 9.50852 12.5495 9.50852ZM24.5646 11H20.9553V0.818182H24.5945C25.6186 0.818182 26.5002 1.02202 27.2393 1.42969C27.9785 1.83404 28.5469 2.41572 28.9446 3.17472C29.3456 3.93371 29.5462 4.84186 29.5462 5.89915C29.5462 6.95975 29.3456 7.87121 28.9446 8.63352C28.5469 9.39583 27.9751 9.98082 27.2294 10.3885C26.487 10.7962 25.5987 11 24.5646 11ZM23.108 9.15554H24.4751C25.1115 9.15554 25.6468 9.04285 26.081 8.81747C26.5185 8.58878 26.8466 8.2358 27.0653 7.75852C27.2874 7.27794 27.3984 6.65814 27.3984 5.89915C27.3984 5.14678 27.2874 4.53196 27.0653 4.05469C26.8466 3.57741 26.5201 3.22609 26.0859 3.00071C25.6518 2.77533 25.1165 2.66264 24.4801 2.66264H23.108V9.15554ZM34.5513 11.1491C33.7791 11.1491 33.1112 10.9851 32.5478 10.657C31.9876 10.3255 31.5551 9.86482 31.2502 9.27486C30.9453 8.68158 30.7928 7.99384 30.7928 7.21165C30.7928 6.42282 30.9453 5.73343 31.2502 5.14347C31.5551 4.55019 31.9876 4.08949 32.5478 3.76136C33.1112 3.42992 33.7791 3.2642 34.5513 3.2642C35.3236 3.2642 35.9898 3.42992 36.5499 3.76136C37.1133 4.08949 37.5475 4.55019 37.8525 5.14347C38.1574 5.73343 38.3098 6.42282 38.3098 7.21165C38.3098 7.99384 38.1574 8.68158 37.8525 9.27486C37.5475 9.86482 37.1133 10.3255 36.5499 10.657C35.9898 10.9851 35.3236 11.1491 34.5513 11.1491ZM34.5613 9.50852C34.9126 9.50852 35.2059 9.40909 35.4412 9.21023C35.6766 9.00805 35.8539 8.73295 35.9732 8.38494C36.0958 8.03693 36.1571 7.64086 36.1571 7.19673C36.1571 6.7526 36.0958 6.35653 35.9732 6.00852C35.8539 5.66051 35.6766 5.38542 35.4412 5.18324C35.2059 4.98106 34.9126 4.87997 34.5613 4.87997C34.2066 4.87997 33.9083 4.98106 33.6664 5.18324C33.4277 5.38542 33.2471 5.66051 33.1245 6.00852C33.0051 6.35653 32.9455 6.7526 32.9455 7.19673C32.9455 7.64086 33.0051 8.03693 33.1245 8.38494C33.2471 8.73295 33.4277 9.00805 33.6664 9.21023C33.9083 9.40909 34.2066 9.50852 34.5613 9.50852Z" fill="#4EA8DE"/>
</svg>
