<svg width="65" height="12" viewBox="0 0 65 12" fill="none" xmlns="http://www.w3.org/2000/svg">
<path d="M0.497159 2.59304V0.818182H8.85938V2.59304H5.74219V11H3.61435V2.59304H0.497159ZM12.5396 11.1491C11.7673 11.1491 11.0995 10.9851 10.536 10.657C9.97591 10.3255 9.54338 9.86482 9.23846 9.27486C8.93353 8.68158 8.78107 7.99384 8.78107 7.21165C8.78107 6.42282 8.93353 5.73343 9.23846 5.14347C9.54338 4.55019 9.97591 4.08949 10.536 3.76136C11.0995 3.42992 11.7673 3.2642 12.5396 3.2642C13.3118 3.2642 13.978 3.42992 14.5382 3.76136C15.1016 4.08949 15.5358 4.55019 15.8407 5.14347C16.1457 5.73343 16.2981 6.42282 16.2981 7.21165C16.2981 7.99384 16.1457 8.68158 15.8407 9.27486C15.5358 9.86482 15.1016 10.3255 14.5382 10.657C13.978 10.9851 13.3118 11.1491 12.5396 11.1491ZM12.5495 9.50852C12.9009 9.50852 13.1942 9.40909 13.4295 9.21023C13.6648 9.00805 13.8422 8.73295 13.9615 8.38494C14.0841 8.03693 14.1454 7.64086 14.1454 7.19673C14.1454 6.7526 14.0841 6.35653 13.9615 6.00852C13.8422 5.66051 13.6648 5.38542 13.4295 5.18324C13.1942 4.98106 12.9009 4.87997 12.5495 4.87997C12.1949 4.87997 11.8966 4.98106 11.6547 5.18324C11.416 5.38542 11.2354 5.66051 11.1127 6.00852C10.9934 6.35653 10.9338 6.7526 10.9338 7.19673C10.9338 7.64086 10.9934 8.03693 11.1127 8.38494C11.2354 8.73295 11.416 9.00805 11.6547 9.21023C11.8966 9.40909 12.1949 9.50852 12.5495 9.50852ZM22.4331 5.97869V7.65909H17.7896V5.97869H22.4331ZM27.0517 11.1243C26.4717 11.1243 25.9463 10.9751 25.4757 10.6768C25.0083 10.3752 24.6371 9.93277 24.362 9.34943C24.0903 8.76278 23.9544 8.04356 23.9544 7.19176C23.9544 6.31676 24.0952 5.58925 24.377 5.00923C24.6587 4.4259 25.0332 3.99006 25.5005 3.7017C25.9712 3.41004 26.4866 3.2642 27.0467 3.2642C27.4743 3.2642 27.8306 3.33712 28.1156 3.48295C28.4039 3.62547 28.6359 3.80445 28.8116 4.01989C28.9906 4.23201 29.1265 4.44081 29.2193 4.64631H29.2839V0.818182H31.3968V11H29.3088V9.77699H29.2193C29.1199 9.98911 28.979 10.1996 28.7967 10.4084C28.6177 10.6139 28.3841 10.7846 28.0957 10.9205C27.8107 11.0563 27.4627 11.1243 27.0517 11.1243ZM27.7228 9.43892C28.0642 9.43892 28.3526 9.34612 28.5879 9.16051C28.8265 8.97159 29.0088 8.7081 29.1348 8.37003C29.264 8.03196 29.3287 7.63589 29.3287 7.18182C29.3287 6.72775 29.2657 6.33333 29.1397 5.99858C29.0138 5.66383 28.8315 5.4053 28.5929 5.22301C28.3542 5.04072 28.0642 4.94957 27.7228 4.94957C27.3748 4.94957 27.0815 5.04403 26.8429 5.23295C26.6042 5.42187 26.4236 5.68371 26.301 6.01847C26.1783 6.35322 26.117 6.741 26.117 7.18182C26.117 7.62595 26.1783 8.0187 26.301 8.36009C26.4269 8.69815 26.6075 8.9633 26.8429 9.15554C27.0815 9.34446 27.3748 9.43892 27.7228 9.43892ZM36.5884 11.1491C35.8162 11.1491 35.1483 10.9851 34.5849 10.657C34.0247 10.3255 33.5922 9.86482 33.2873 9.27486C32.9824 8.68158 32.8299 7.99384 32.8299 7.21165C32.8299 6.42282 32.9824 5.73343 33.2873 5.14347C33.5922 4.55019 34.0247 4.08949 34.5849 3.76136C35.1483 3.42992 35.8162 3.2642 36.5884 3.2642C37.3607 3.2642 38.0269 3.42992 38.587 3.76136C39.1504 4.08949 39.5846 4.55019 39.8896 5.14347C40.1945 5.73343 40.3469 6.42282 40.3469 7.21165C40.3469 7.99384 40.1945 8.68158 39.8896 9.27486C39.5846 9.86482 39.1504 10.3255 38.587 10.657C38.0269 10.9851 37.3607 11.1491 36.5884 11.1491ZM36.5984 9.50852C36.9497 9.50852 37.243 9.40909 37.4783 9.21023C37.7137 9.00805 37.891 8.73295 38.0103 8.38494C38.1329 8.03693 38.1942 7.64086 38.1942 7.19673C38.1942 6.7526 38.1329 6.35653 38.0103 6.00852C37.891 5.66051 37.7137 5.38542 37.4783 5.18324C37.243 4.98106 36.9497 4.87997 36.5984 4.87997C36.2437 4.87997 35.9454 4.98106 35.7035 5.18324C35.4648 5.38542 35.2842 5.66051 35.1616 6.00852C35.0423 6.35653 34.9826 6.7526 34.9826 7.19673C34.9826 7.64086 35.0423 8.03693 35.1616 8.38494C35.2842 8.73295 35.4648 9.00805 35.7035 9.21023C35.9454 9.40909 36.2437 9.50852 36.5984 9.50852ZM47.0822 0.818182V11H44.9643V0.818182H47.0822ZM48.7788 11V3.36364H50.8967V11H48.7788ZM49.8427 2.37926C49.5278 2.37926 49.2577 2.27486 49.0323 2.06605C48.8103 1.85393 48.6992 1.60038 48.6992 1.3054C48.6992 1.01373 48.8103 0.763494 49.0323 0.554688C49.2577 0.342566 49.5278 0.236505 49.8427 0.236505C50.1576 0.236505 50.426 0.342566 50.6481 0.554688C50.8735 0.763494 50.9862 1.01373 50.9862 1.3054C50.9862 1.60038 50.8735 1.85393 50.6481 2.06605C50.426 2.27486 50.1576 2.37926 49.8427 2.37926ZM58.9469 5.54119L57.008 5.66051C56.9748 5.49479 56.9036 5.34564 56.7942 5.21307C56.6848 5.07718 56.5407 4.96946 56.3617 4.88991C56.186 4.80705 55.9756 4.76562 55.7303 4.76562C55.4022 4.76562 55.1254 4.83523 54.9 4.97443C54.6747 5.11032 54.562 5.29261 54.562 5.52131C54.562 5.7036 54.6349 5.85772 54.7807 5.98366C54.9266 6.10961 55.1768 6.2107 55.5314 6.28693L56.9135 6.56534C57.656 6.7178 58.2095 6.96307 58.574 7.30114C58.9386 7.6392 59.1209 8.08333 59.1209 8.63352C59.1209 9.134 58.9734 9.57315 58.6784 9.95099C58.3868 10.3288 57.9857 10.6238 57.4753 10.8359C56.9682 11.0447 56.3832 11.1491 55.7203 11.1491C54.7095 11.1491 53.9041 10.9387 53.3042 10.5178C52.7076 10.0935 52.3579 9.51681 52.2551 8.78764L54.3382 8.67827C54.4012 8.98651 54.5537 9.22183 54.7956 9.38423C55.0376 9.54332 55.3475 9.62287 55.7253 9.62287C56.0965 9.62287 56.3948 9.55161 56.6202 9.40909C56.8489 9.26326 56.9649 9.07599 56.9682 8.8473C56.9649 8.65507 56.8837 8.49763 56.7246 8.375C56.5655 8.24905 56.3203 8.15294 55.9888 8.08665L54.6664 7.82315C53.9206 7.67401 53.3655 7.41548 53.0009 7.04759C52.6396 6.67969 52.459 6.2107 52.459 5.64062C52.459 5.15009 52.5916 4.72751 52.8567 4.37287C53.1252 4.01823 53.5014 3.74479 53.9853 3.55256C54.4725 3.36032 55.0426 3.2642 55.6955 3.2642C56.66 3.2642 57.419 3.46804 57.9725 3.87571C58.5293 4.28338 58.8541 4.83854 58.9469 5.54119ZM64.5163 3.36364V4.95455H59.9176V3.36364H64.5163ZM60.9616 1.53409H63.0795V8.65341C63.0795 8.84896 63.1094 9.00142 63.169 9.1108C63.2287 9.21686 63.3116 9.29143 63.4176 9.33452C63.527 9.3776 63.6529 9.39915 63.7955 9.39915C63.8949 9.39915 63.9943 9.39086 64.0938 9.37429C64.1932 9.3544 64.2694 9.33949 64.3224 9.32955L64.6555 10.9055C64.5495 10.9387 64.4003 10.9768 64.2081 11.0199C64.0159 11.0663 63.7822 11.0945 63.5071 11.1044C62.9967 11.1243 62.5492 11.0563 62.1648 10.9006C61.7836 10.7448 61.487 10.5028 61.2749 10.1747C61.0627 9.84659 60.9583 9.43229 60.9616 8.93182V1.53409Z" fill="#4EA8DE"/>
</svg>
